<svg width="18" height="18" viewBox="0 0 18 18" fill="none" xmlns="http://www.w3.org/2000/svg">
<path fill-rule="evenodd" clip-rule="evenodd" d="M12.181 1.5H5.81903C5.2153 1.49999 4.71703 1.49998 4.31113 1.53315C3.88956 1.56759 3.50203 1.64151 3.13803 1.82698C2.57354 2.1146 2.1146 2.57354 1.82698 3.13803C1.64151 3.50203 1.56759 3.88956 1.53315 4.31113C1.49998 4.71703 1.49999 5.21529 1.5 5.81901V10.1507C1.49999 10.653 1.49999 11.0677 1.52315 11.4072C1.54716 11.7591 1.59856 12.0847 1.72836 12.3981C2.03284 13.1331 2.61687 13.7172 3.35195 14.0216C3.66531 14.1514 3.99088 14.2028 4.34285 14.2269C4.6823 14.25 5.09695 14.25 5.5993 14.25H5.625C6.02742 14.25 6.1073 14.2547 6.17232 14.2701C6.28563 14.2968 6.39117 14.3496 6.48056 14.4242C6.53185 14.467 6.58355 14.5281 6.825 14.85L7.9327 16.3269C8.00271 16.4204 8.08187 16.526 8.15805 16.6107C8.24205 16.7041 8.38167 16.8416 8.59222 16.9235C8.8545 17.0255 9.1455 17.0255 9.40778 16.9235C9.61833 16.8416 9.75795 16.7041 9.84195 16.6107C9.91813 16.526 9.99729 16.4203 10.0673 16.3269L11.175 14.85C11.4165 14.5281 11.4682 14.467 11.5194 14.4242C11.6088 14.3496 11.7144 14.2968 11.8277 14.2701C11.8927 14.2547 11.9726 14.25 12.375 14.25H12.4007C12.903 14.25 13.3177 14.25 13.6572 14.2269C14.0091 14.2028 14.3347 14.1514 14.6481 14.0216C15.3831 13.7172 15.9672 13.1331 16.2716 12.3981C16.4014 12.0847 16.4528 11.7591 16.4769 11.4072C16.5 11.0677 16.5 10.653 16.5 10.1507V5.81901C16.5 5.21529 16.5 4.71702 16.4669 4.31113C16.4324 3.88956 16.3585 3.50203 16.173 3.13803C15.8854 2.57354 15.4265 2.1146 14.862 1.82698C14.498 1.64151 14.1104 1.56759 13.6889 1.53315C13.283 1.49998 12.7847 1.49999 12.181 1.5ZM9 4.5C8.58579 4.5 8.25 4.83579 8.25 5.25C8.25 5.66421 8.58579 6 9 6H9.0075C9.42171 6 9.7575 5.66421 9.7575 5.25C9.7575 4.83579 9.42171 4.5 9.0075 4.5H9ZM9.75 7.875C9.75 7.46079 9.41421 7.125 9 7.125C8.58579 7.125 8.25 7.46079 8.25 7.875V10.5C8.25 10.9142 8.58579 11.25 9 11.25C9.41421 11.25 9.75 10.9142 9.75 10.5V7.875Z" fill="#878787"/>
</svg>
