<svg width="48" height="28" viewBox="0 0 48 28" fill="none" xmlns="http://www.w3.org/2000/svg">
<path d="M32.293 17.793C32.6835 17.4024 33.3165 17.4024 33.707 17.793C34.0976 18.1835 34.0976 18.8165 33.707 19.207L29.207 23.707C28.8165 24.0976 28.1835 24.0976 27.793 23.707L25.793 21.707C25.4024 21.3165 25.4024 20.6835 25.793 20.293C26.1835 19.9024 26.8165 19.9024 27.207 20.293L28.5 21.5859L32.293 17.793ZM27 8V7H21V8C21 8.55228 20.5523 9 20 9C19.4477 9 19 8.55228 19 8V7.00293C18.5545 7.00606 18.2047 7.01313 17.9111 7.03711C17.4727 7.07293 17.2482 7.13808 17.0918 7.21777C16.7155 7.40951 16.4095 7.71554 16.2178 8.0918C16.1381 8.2482 16.0729 8.47272 16.0371 8.91113C16.0004 9.36117 16 9.94341 16 10.7998V11H32V10.7998C32 9.94341 31.9997 9.36117 31.9629 8.91113C31.9271 8.47272 31.8619 8.2482 31.7822 8.0918C31.5905 7.71554 31.2845 7.40951 30.9082 7.21777C30.7518 7.13808 30.5273 7.07293 30.0889 7.03711C29.7953 7.01313 29.4455 7.00606 29 7.00293V8C29 8.55228 28.5523 9 28 9C27.4477 9 27 8.55228 27 8ZM34 14.5C34 15.0523 33.5523 15.5 33 15.5C32.4477 15.5 32 15.0523 32 14.5V13H16V19.2002C16 20.0566 16.0004 20.6388 16.0371 21.0889C16.0729 21.5273 16.1381 21.7518 16.2178 21.9082C16.4095 22.2845 16.7155 22.5905 17.0918 22.7822C17.2482 22.8619 17.4727 22.9271 17.9111 22.9629C18.3612 22.9997 18.9434 23 19.7998 23H24C24.5523 23 25 23.4477 25 24C25 24.5523 24.5523 25 24 25H19.7998C18.9763 25 18.2984 25.001 17.748 24.9561C17.186 24.9101 16.6689 24.8117 16.1836 24.5645C15.4311 24.181 14.819 23.5689 14.4355 22.8164C14.1883 22.3311 14.0899 21.814 14.0439 21.252C13.999 20.7016 14 20.0237 14 19.2002V10.7998C14 9.97632 13.999 9.29843 14.0439 8.74805C14.0899 8.18599 14.1883 7.6689 14.4355 7.18359C14.819 6.43109 15.4311 5.81902 16.1836 5.43555C16.6689 5.18827 17.186 5.08987 17.748 5.04395C18.1089 5.01447 18.5245 5.0062 19 5.00293V4C19 3.44772 19.4477 3 20 3C20.5523 3 21 3.44772 21 4V5H27V4C27 3.44772 27.4477 3 28 3C28.5523 3 29 3.44772 29 4V5.00293C29.4755 5.0062 29.8911 5.01447 30.252 5.04395C30.814 5.08987 31.3311 5.18827 31.8164 5.43555C32.5689 5.81902 33.181 6.43109 33.5645 7.18359C33.8117 7.6689 33.9101 8.18599 33.9561 8.74805C34.001 9.29843 34 9.97632 34 10.7998V14.5Z" fill="#F2F4F7"/>
</svg>
